<mxfile host="app.diagrams.net" agent="Mozilla/5.0 (Windows NT 10.0; Win64; x64) AppleWebKit/537.36 (KHTML, like Gecko) Chrome/135.0.0.0 Safari/537.36" version="26.2.13">
  <diagram name="Page-1" id="0783ab3e-0a74-02c8-0abd-f7b4e66b4bec">
    <mxGraphModel grid="1" page="1" gridSize="10" guides="1" tooltips="1" connect="1" arrows="1" fold="1" pageScale="1" pageWidth="850" pageHeight="1100" background="#ffffff" math="0" shadow="0">
      <root>
        <mxCell id="0" />
        <mxCell id="1" parent="0" />
        <mxCell id="1c1d494c118603dd-1" value="Personal a cargo" style="swimlane;html=1;childLayout=stackLayout;startSize=20;rounded=0;shadow=0;comic=0;labelBackgroundColor=none;strokeWidth=1;fontFamily=Verdana;fontSize=12;align=center;" vertex="1" parent="1">
          <mxGeometry y="190" width="900" height="1100" as="geometry" />
        </mxCell>
        <mxCell id="1c1d494c118603dd-2" value="ALMACEN" style="swimlane;html=1;startSize=20;" vertex="1" parent="1c1d494c118603dd-1">
          <mxGeometry y="20" width="380" height="1080" as="geometry" />
        </mxCell>
        <mxCell id="jqkNV03kGIeta2NaU_1v-10" style="edgeStyle=orthogonalEdgeStyle;rounded=0;orthogonalLoop=1;jettySize=auto;html=1;exitX=0;exitY=0.5;exitDx=0;exitDy=0;" edge="1" parent="1c1d494c118603dd-2">
          <mxGeometry relative="1" as="geometry">
            <mxPoint x="70" y="520" as="targetPoint" />
          </mxGeometry>
        </mxCell>
        <mxCell id="jqkNV03kGIeta2NaU_1v-55" value="&lt;font style=&quot;font-size: 11px;&quot;&gt;Mercancía nueva?&lt;/font&gt;" style="rhombus;whiteSpace=wrap;html=1;" vertex="1" parent="1c1d494c118603dd-2">
          <mxGeometry x="130" y="366" width="115" height="110" as="geometry" />
        </mxCell>
        <mxCell id="jqkNV03kGIeta2NaU_1v-58" value="" style="ellipse;whiteSpace=wrap;html=1;strokeColor=#B20000;fillColor=#e51400;fontColor=#ffffff;" vertex="1" parent="1c1d494c118603dd-2">
          <mxGeometry x="128.75" y="920" width="60" height="65" as="geometry" />
        </mxCell>
        <mxCell id="bGonlxIwtN5kuK9Iq0CV-22" style="edgeStyle=orthogonalEdgeStyle;rounded=0;orthogonalLoop=1;jettySize=auto;html=1;exitX=0.5;exitY=1;exitDx=0;exitDy=0;entryX=0.5;entryY=0;entryDx=0;entryDy=0;" edge="1" parent="1c1d494c118603dd-2" target="jqkNV03kGIeta2NaU_1v-62">
          <mxGeometry relative="1" as="geometry">
            <mxPoint x="300" y="586" as="sourcePoint" />
          </mxGeometry>
        </mxCell>
        <mxCell id="jqkNV03kGIeta2NaU_1v-60" value="&lt;font style=&quot;font-size: 11px;&quot;&gt;Registro en drive y numeración de cajas&lt;/font&gt;" style="rounded=0;whiteSpace=wrap;html=1;" vertex="1" parent="1c1d494c118603dd-2">
          <mxGeometry x="235" y="530" width="120" height="60" as="geometry" />
        </mxCell>
        <mxCell id="jqkNV03kGIeta2NaU_1v-62" value="&lt;font style=&quot;font-size: 11px;&quot;&gt;Se requiere Transformación?&lt;/font&gt;" style="rhombus;whiteSpace=wrap;html=1;" vertex="1" parent="1c1d494c118603dd-2">
          <mxGeometry x="245" y="631.5" width="110" height="95" as="geometry" />
        </mxCell>
        <mxCell id="jqkNV03kGIeta2NaU_1v-70" value="Ingreso mercancía?" style="rhombus;whiteSpace=wrap;html=1;" vertex="1" parent="1c1d494c118603dd-2">
          <mxGeometry x="120" y="120" width="140" height="110" as="geometry" />
        </mxCell>
        <mxCell id="jqkNV03kGIeta2NaU_1v-73" style="edgeStyle=orthogonalEdgeStyle;rounded=0;orthogonalLoop=1;jettySize=auto;html=1;exitX=0.5;exitY=1;exitDx=0;exitDy=0;entryX=0.5;entryY=0;entryDx=0;entryDy=0;" edge="1" parent="1c1d494c118603dd-2" target="jqkNV03kGIeta2NaU_1v-70">
          <mxGeometry relative="1" as="geometry">
            <mxPoint x="190" y="95" as="sourcePoint" />
          </mxGeometry>
        </mxCell>
        <mxCell id="bGonlxIwtN5kuK9Iq0CV-1" value="" style="ellipse;whiteSpace=wrap;html=1;aspect=fixed;fillColor=#60a917;fontColor=#ffffff;strokeColor=#2D7600;" vertex="1" parent="1c1d494c118603dd-2">
          <mxGeometry x="160" y="30" width="60" height="60" as="geometry" />
        </mxCell>
        <mxCell id="bGonlxIwtN5kuK9Iq0CV-8" style="edgeStyle=orthogonalEdgeStyle;rounded=0;orthogonalLoop=1;jettySize=auto;html=1;exitX=0.5;exitY=1;exitDx=0;exitDy=0;" edge="1" parent="1c1d494c118603dd-2" source="bGonlxIwtN5kuK9Iq0CV-3" target="jqkNV03kGIeta2NaU_1v-55">
          <mxGeometry relative="1" as="geometry" />
        </mxCell>
        <mxCell id="bGonlxIwtN5kuK9Iq0CV-3" value="&lt;font style=&quot;font-size: 11px;&quot;&gt;Se recibe en muelles&lt;/font&gt;" style="rounded=0;whiteSpace=wrap;html=1;" vertex="1" parent="1c1d494c118603dd-2">
          <mxGeometry x="128.75" y="266" width="117.5" height="60" as="geometry" />
        </mxCell>
        <mxCell id="bGonlxIwtN5kuK9Iq0CV-55" style="edgeStyle=orthogonalEdgeStyle;rounded=0;orthogonalLoop=1;jettySize=auto;html=1;entryX=0;entryY=0.5;entryDx=0;entryDy=0;" edge="1" parent="1c1d494c118603dd-2" source="bGonlxIwtN5kuK9Iq0CV-4" target="jqkNV03kGIeta2NaU_1v-58">
          <mxGeometry relative="1" as="geometry">
            <Array as="points">
              <mxPoint x="30" y="175" />
              <mxPoint x="30" y="952" />
            </Array>
          </mxGeometry>
        </mxCell>
        <mxCell id="bGonlxIwtN5kuK9Iq0CV-4" value="No" style="text;html=1;align=center;verticalAlign=middle;resizable=0;points=[];autosize=1;strokeColor=none;fillColor=none;" vertex="1" parent="1c1d494c118603dd-2">
          <mxGeometry x="70" y="160" width="40" height="30" as="geometry" />
        </mxCell>
        <mxCell id="bGonlxIwtN5kuK9Iq0CV-43" style="edgeStyle=orthogonalEdgeStyle;rounded=0;orthogonalLoop=1;jettySize=auto;html=1;entryX=1;entryY=0.5;entryDx=0;entryDy=0;" edge="1" parent="1c1d494c118603dd-2" source="bGonlxIwtN5kuK9Iq0CV-15" target="bGonlxIwtN5kuK9Iq0CV-3">
          <mxGeometry relative="1" as="geometry">
            <Array as="points">
              <mxPoint x="340" y="175" />
              <mxPoint x="340" y="296" />
            </Array>
          </mxGeometry>
        </mxCell>
        <mxCell id="bGonlxIwtN5kuK9Iq0CV-15" value="Si" style="text;html=1;align=center;verticalAlign=middle;resizable=0;points=[];autosize=1;strokeColor=none;fillColor=none;" vertex="1" parent="1c1d494c118603dd-2">
          <mxGeometry x="260" y="160" width="30" height="30" as="geometry" />
        </mxCell>
        <mxCell id="bGonlxIwtN5kuK9Iq0CV-9" value="Si" style="text;html=1;align=center;verticalAlign=middle;resizable=0;points=[];autosize=1;strokeColor=none;fillColor=none;" vertex="1" parent="1c1d494c118603dd-2">
          <mxGeometry x="247.5" y="406" width="30" height="30" as="geometry" />
        </mxCell>
        <mxCell id="bGonlxIwtN5kuK9Iq0CV-23" style="edgeStyle=orthogonalEdgeStyle;rounded=0;orthogonalLoop=1;jettySize=auto;html=1;entryX=0.5;entryY=0;entryDx=0;entryDy=0;" edge="1" parent="1c1d494c118603dd-2" source="bGonlxIwtN5kuK9Iq0CV-9">
          <mxGeometry relative="1" as="geometry">
            <mxPoint x="300" y="526" as="targetPoint" />
            <Array as="points">
              <mxPoint x="300" y="436" />
            </Array>
          </mxGeometry>
        </mxCell>
        <mxCell id="bGonlxIwtN5kuK9Iq0CV-12" value="No" style="text;html=1;align=center;verticalAlign=middle;resizable=0;points=[];autosize=1;strokeColor=none;fillColor=none;" vertex="1" parent="1c1d494c118603dd-2">
          <mxGeometry x="88.75" y="406" width="40" height="30" as="geometry" />
        </mxCell>
        <mxCell id="bGonlxIwtN5kuK9Iq0CV-59" style="edgeStyle=orthogonalEdgeStyle;rounded=0;orthogonalLoop=1;jettySize=auto;html=1;entryX=0.5;entryY=0;entryDx=0;entryDy=0;" edge="1" parent="1c1d494c118603dd-2" source="bGonlxIwtN5kuK9Iq0CV-30" target="bGonlxIwtN5kuK9Iq0CV-58">
          <mxGeometry relative="1" as="geometry">
            <Array as="points">
              <mxPoint x="159" y="679" />
            </Array>
          </mxGeometry>
        </mxCell>
        <mxCell id="bGonlxIwtN5kuK9Iq0CV-30" value="No" style="text;html=1;align=center;verticalAlign=middle;resizable=0;points=[];autosize=1;strokeColor=none;fillColor=none;" vertex="1" parent="1c1d494c118603dd-2">
          <mxGeometry x="205" y="664" width="40" height="30" as="geometry" />
        </mxCell>
        <mxCell id="bGonlxIwtN5kuK9Iq0CV-31" value="Si" style="text;html=1;align=center;verticalAlign=middle;resizable=0;points=[];autosize=1;strokeColor=none;fillColor=none;" vertex="1" parent="1c1d494c118603dd-2">
          <mxGeometry x="353" y="664.5" width="30" height="30" as="geometry" />
        </mxCell>
        <mxCell id="bGonlxIwtN5kuK9Iq0CV-58" value="Entrega lote del producto al cliente" style="whiteSpace=wrap;html=1;" vertex="1" parent="1c1d494c118603dd-2">
          <mxGeometry x="98.75" y="780" width="120" height="60" as="geometry" />
        </mxCell>
        <mxCell id="bGonlxIwtN5kuK9Iq0CV-61" style="edgeStyle=orthogonalEdgeStyle;rounded=0;orthogonalLoop=1;jettySize=auto;html=1;exitX=0.5;exitY=1;exitDx=0;exitDy=0;entryX=0.503;entryY=-0.048;entryDx=0;entryDy=0;entryPerimeter=0;" edge="1" parent="1c1d494c118603dd-2" source="bGonlxIwtN5kuK9Iq0CV-58" target="jqkNV03kGIeta2NaU_1v-58">
          <mxGeometry relative="1" as="geometry" />
        </mxCell>
        <mxCell id="bGonlxIwtN5kuK9Iq0CV-34" style="edgeStyle=orthogonalEdgeStyle;rounded=0;orthogonalLoop=1;jettySize=auto;html=1;entryX=0.54;entryY=-0.01;entryDx=0;entryDy=0;entryPerimeter=0;" edge="1" parent="1c1d494c118603dd-1" source="bGonlxIwtN5kuK9Iq0CV-31" target="jqkNV03kGIeta2NaU_1v-69">
          <mxGeometry relative="1" as="geometry">
            <Array as="points">
              <mxPoint x="370" y="280" />
              <mxPoint x="520" y="280" />
              <mxPoint x="520" y="299" />
            </Array>
          </mxGeometry>
        </mxCell>
        <mxCell id="bGonlxIwtN5kuK9Iq0CV-49" style="edgeStyle=orthogonalEdgeStyle;rounded=0;orthogonalLoop=1;jettySize=auto;html=1;entryX=0.5;entryY=0;entryDx=0;entryDy=0;" edge="1" parent="1c1d494c118603dd-1" source="bGonlxIwtN5kuK9Iq0CV-12" target="bGonlxIwtN5kuK9Iq0CV-48">
          <mxGeometry relative="1" as="geometry">
            <Array as="points">
              <mxPoint x="109" y="260" />
              <mxPoint x="417" y="260" />
              <mxPoint x="417" y="210" />
              <mxPoint x="765" y="210" />
            </Array>
          </mxGeometry>
        </mxCell>
        <mxCell id="bGonlxIwtN5kuK9Iq0CV-70" style="edgeStyle=orthogonalEdgeStyle;rounded=0;orthogonalLoop=1;jettySize=auto;html=1;entryX=1;entryY=0.75;entryDx=0;entryDy=0;" edge="1" parent="1c1d494c118603dd-1" source="jqkNV03kGIeta2NaU_1v-84" target="bGonlxIwtN5kuK9Iq0CV-58">
          <mxGeometry relative="1" as="geometry">
            <Array as="points">
              <mxPoint x="563" y="845" />
            </Array>
          </mxGeometry>
        </mxCell>
        <mxCell id="1c1d494c118603dd-4" value="&amp;nbsp; &amp;nbsp; &amp;nbsp; &amp;nbsp; &amp;nbsp; &amp;nbsp; &amp;nbsp; &amp;nbsp; &amp;nbsp; &amp;nbsp; &amp;nbsp; &amp;nbsp; &amp;nbsp; &amp;nbsp; &amp;nbsp; &amp;nbsp; &amp;nbsp; &amp;nbsp; &amp;nbsp; &amp;nbsp; &amp;nbsp; &amp;nbsp; &amp;nbsp; &amp;nbsp; &amp;nbsp; &amp;nbsp; &amp;nbsp; &amp;nbsp; &amp;nbsp; &amp;nbsp; &amp;nbsp; &amp;nbsp; &amp;nbsp; &amp;nbsp; &amp;nbsp; Garantías" style="swimlane;html=1;startSize=20;" vertex="1" parent="1c1d494c118603dd-1">
          <mxGeometry x="380" y="20" width="515" height="1080" as="geometry" />
        </mxCell>
        <mxCell id="1c1d494c118603dd-3" value="&lt;font style=&quot;vertical-align: inherit;&quot;&gt;&lt;font style=&quot;vertical-align: inherit;&quot;&gt;Servicio técnico&lt;/font&gt;&lt;/font&gt;" style="swimlane;html=1;startSize=20;" vertex="1" parent="1c1d494c118603dd-4">
          <mxGeometry width="250" height="1080" as="geometry" />
        </mxCell>
        <mxCell id="jqkNV03kGIeta2NaU_1v-79" style="edgeStyle=orthogonalEdgeStyle;rounded=0;orthogonalLoop=1;jettySize=auto;html=1;exitX=0.5;exitY=1;exitDx=0;exitDy=0;entryX=0.5;entryY=0;entryDx=0;entryDy=0;" edge="1" parent="1c1d494c118603dd-3" source="jqkNV03kGIeta2NaU_1v-69" target="jqkNV03kGIeta2NaU_1v-78">
          <mxGeometry relative="1" as="geometry" />
        </mxCell>
        <mxCell id="jqkNV03kGIeta2NaU_1v-69" value="&lt;font style=&quot;font-size: 11px;&quot;&gt;Orden de trabajo&amp;nbsp;&lt;/font&gt;" style="rounded=0;whiteSpace=wrap;html=1;" vertex="1" parent="1c1d494c118603dd-3">
          <mxGeometry x="70.63" y="280" width="120" height="60" as="geometry" />
        </mxCell>
        <mxCell id="jqkNV03kGIeta2NaU_1v-78" value="&lt;p style=&quot;line-height: 110%;&quot;&gt;&lt;font style=&quot;font-size: 10px;&quot;&gt;Hay registro de las partes ensambladas?&lt;/font&gt;&lt;/p&gt;" style="rhombus;whiteSpace=wrap;html=1;align=center;" vertex="1" parent="1c1d494c118603dd-3">
          <mxGeometry x="51.25" y="380" width="158.75" height="110" as="geometry" />
        </mxCell>
        <mxCell id="jqkNV03kGIeta2NaU_1v-84" value="&lt;font style=&quot;font-size: 11px;&quot;&gt;Se realiza la transformación en software contable del cual solo tiene acceso personal de contabilidad&lt;/font&gt;" style="rounded=0;whiteSpace=wrap;html=1;" vertex="1" parent="1c1d494c118603dd-3">
          <mxGeometry x="115" y="590" width="125" height="90" as="geometry" />
        </mxCell>
        <mxCell id="LslDM5gkmRN-KcGAirMP-5" style="edgeStyle=orthogonalEdgeStyle;rounded=0;orthogonalLoop=1;jettySize=auto;html=1;" edge="1" parent="1c1d494c118603dd-3" source="bGonlxIwtN5kuK9Iq0CV-24">
          <mxGeometry relative="1" as="geometry">
            <mxPoint x="34.25" y="490" as="targetPoint" />
          </mxGeometry>
        </mxCell>
        <mxCell id="bGonlxIwtN5kuK9Iq0CV-24" value="No" style="text;html=1;align=center;verticalAlign=middle;resizable=0;points=[];autosize=1;strokeColor=none;fillColor=none;" vertex="1" parent="1c1d494c118603dd-3">
          <mxGeometry x="14.25" y="420" width="40" height="30" as="geometry" />
        </mxCell>
        <mxCell id="bGonlxIwtN5kuK9Iq0CV-27" style="edgeStyle=orthogonalEdgeStyle;rounded=0;orthogonalLoop=1;jettySize=auto;html=1;entryX=0.5;entryY=0;entryDx=0;entryDy=0;" edge="1" parent="1c1d494c118603dd-3" source="bGonlxIwtN5kuK9Iq0CV-26" target="jqkNV03kGIeta2NaU_1v-84">
          <mxGeometry relative="1" as="geometry" />
        </mxCell>
        <mxCell id="bGonlxIwtN5kuK9Iq0CV-26" value="Si" style="text;html=1;align=center;verticalAlign=middle;resizable=0;points=[];autosize=1;strokeColor=none;fillColor=none;" vertex="1" parent="1c1d494c118603dd-3">
          <mxGeometry x="208.75" y="420" width="30" height="30" as="geometry" />
        </mxCell>
        <mxCell id="LslDM5gkmRN-KcGAirMP-1" value="" style="ellipse;whiteSpace=wrap;html=1;strokeColor=#B20000;fillColor=#e51400;fontColor=#ffffff;" vertex="1" parent="1c1d494c118603dd-3">
          <mxGeometry x="5" y="492.5" width="60" height="65" as="geometry" />
        </mxCell>
        <mxCell id="jqkNV03kGIeta2NaU_1v-76" value="&lt;font style=&quot;font-size: 11px;&quot;&gt;Se requiere información del producto vendido?&lt;/font&gt;" style="rhombus;whiteSpace=wrap;html=1;" vertex="1" parent="1c1d494c118603dd-4">
          <mxGeometry x="310" y="340" width="160" height="115" as="geometry" />
        </mxCell>
        <mxCell id="jqkNV03kGIeta2NaU_1v-96" value="" style="ellipse;whiteSpace=wrap;html=1;strokeColor=#B20000;fillColor=#e51400;fontColor=#ffffff;" vertex="1" parent="1c1d494c118603dd-4">
          <mxGeometry x="350" y="965" width="60" height="65" as="geometry" />
        </mxCell>
        <mxCell id="jqkNV03kGIeta2NaU_1v-101" style="edgeStyle=orthogonalEdgeStyle;rounded=0;orthogonalLoop=1;jettySize=auto;html=1;exitX=0.5;exitY=1;exitDx=0;exitDy=0;entryX=0.5;entryY=0;entryDx=0;entryDy=0;" edge="1" parent="1c1d494c118603dd-4" target="jqkNV03kGIeta2NaU_1v-100">
          <mxGeometry relative="1" as="geometry">
            <mxPoint x="409" y="680" as="sourcePoint" />
          </mxGeometry>
        </mxCell>
        <mxCell id="jqkNV03kGIeta2NaU_1v-97" value="&lt;font style=&quot;font-size: 11px;&quot;&gt;Verificación de en carpetas alojadas en servidor y correo electrónicos&lt;/font&gt;" style="rounded=0;whiteSpace=wrap;html=1;" vertex="1" parent="1c1d494c118603dd-4">
          <mxGeometry x="320" y="620" width="120" height="60" as="geometry" />
        </mxCell>
        <mxCell id="jqkNV03kGIeta2NaU_1v-100" value="&lt;font style=&quot;font-size: 10px;&quot;&gt;Se cerró el tramite de garantía&lt;/font&gt;" style="rhombus;whiteSpace=wrap;html=1;" vertex="1" parent="1c1d494c118603dd-4">
          <mxGeometry x="345.5" y="701" width="125" height="110" as="geometry" />
        </mxCell>
        <mxCell id="bGonlxIwtN5kuK9Iq0CV-51" style="edgeStyle=orthogonalEdgeStyle;rounded=0;orthogonalLoop=1;jettySize=auto;html=1;entryX=0;entryY=0.5;entryDx=0;entryDy=0;exitX=0.5;exitY=1;exitDx=0;exitDy=0;" edge="1" parent="1c1d494c118603dd-4" source="jqkNV03kGIeta2NaU_1v-104" target="bGonlxIwtN5kuK9Iq0CV-50">
          <mxGeometry relative="1" as="geometry">
            <mxPoint x="325" y="610" as="sourcePoint" />
            <Array as="points">
              <mxPoint x="325" y="610" />
              <mxPoint x="265" y="610" />
              <mxPoint x="265" y="890" />
            </Array>
          </mxGeometry>
        </mxCell>
        <mxCell id="jqkNV03kGIeta2NaU_1v-104" value="No aplica tramite de garantía" style="rounded=1;whiteSpace=wrap;html=1;" vertex="1" parent="1c1d494c118603dd-4">
          <mxGeometry x="265" y="530" width="120" height="60" as="geometry" />
        </mxCell>
        <mxCell id="bGonlxIwtN5kuK9Iq0CV-21" style="edgeStyle=orthogonalEdgeStyle;rounded=0;orthogonalLoop=1;jettySize=auto;html=1;exitX=0.5;exitY=1;exitDx=0;exitDy=0;entryX=0.5;entryY=0;entryDx=0;entryDy=0;" edge="1" parent="1c1d494c118603dd-4" target="jqkNV03kGIeta2NaU_1v-76">
          <mxGeometry relative="1" as="geometry">
            <mxPoint x="380" y="230" as="sourcePoint" />
          </mxGeometry>
        </mxCell>
        <mxCell id="LslDM5gkmRN-KcGAirMP-17" style="edgeStyle=orthogonalEdgeStyle;rounded=0;orthogonalLoop=1;jettySize=auto;html=1;" edge="1" parent="1c1d494c118603dd-4" source="bGonlxIwtN5kuK9Iq0CV-36" target="LslDM5gkmRN-KcGAirMP-16">
          <mxGeometry relative="1" as="geometry" />
        </mxCell>
        <mxCell id="bGonlxIwtN5kuK9Iq0CV-36" value="No" style="text;html=1;align=center;verticalAlign=middle;resizable=0;points=[];autosize=1;strokeColor=none;fillColor=none;" vertex="1" parent="1c1d494c118603dd-4">
          <mxGeometry x="284" y="740" width="40" height="30" as="geometry" />
        </mxCell>
        <mxCell id="bGonlxIwtN5kuK9Iq0CV-52" style="edgeStyle=orthogonalEdgeStyle;rounded=0;orthogonalLoop=1;jettySize=auto;html=1;entryX=1;entryY=0.5;entryDx=0;entryDy=0;" edge="1" parent="1c1d494c118603dd-4">
          <mxGeometry relative="1" as="geometry">
            <mxPoint x="498.9955172413793" y="800" as="sourcePoint" />
            <mxPoint x="474.02999999999975" y="889.9999999999998" as="targetPoint" />
            <Array as="points">
              <mxPoint x="499.03" y="890" />
            </Array>
          </mxGeometry>
        </mxCell>
        <mxCell id="bGonlxIwtN5kuK9Iq0CV-39" value="Si" style="text;html=1;align=center;verticalAlign=middle;resizable=0;points=[];autosize=1;strokeColor=none;fillColor=none;" vertex="1" parent="1c1d494c118603dd-4">
          <mxGeometry x="484" y="741" width="30" height="30" as="geometry" />
        </mxCell>
        <mxCell id="bGonlxIwtN5kuK9Iq0CV-48" value="La mercancía recibida hace parte del servicio de garantía" style="whiteSpace=wrap;html=1;" vertex="1" parent="1c1d494c118603dd-4">
          <mxGeometry x="320" y="210" width="120" height="60" as="geometry" />
        </mxCell>
        <mxCell id="bGonlxIwtN5kuK9Iq0CV-54" style="edgeStyle=orthogonalEdgeStyle;rounded=0;orthogonalLoop=1;jettySize=auto;html=1;exitX=0.5;exitY=1;exitDx=0;exitDy=0;entryX=0.5;entryY=0;entryDx=0;entryDy=0;" edge="1" parent="1c1d494c118603dd-4" source="bGonlxIwtN5kuK9Iq0CV-50" target="jqkNV03kGIeta2NaU_1v-96">
          <mxGeometry relative="1" as="geometry" />
        </mxCell>
        <mxCell id="bGonlxIwtN5kuK9Iq0CV-50" value="Devolución al cliente" style="whiteSpace=wrap;html=1;" vertex="1" parent="1c1d494c118603dd-4">
          <mxGeometry x="349" y="860" width="120" height="60" as="geometry" />
        </mxCell>
        <mxCell id="bGonlxIwtN5kuK9Iq0CV-66" style="edgeStyle=orthogonalEdgeStyle;rounded=0;orthogonalLoop=1;jettySize=auto;html=1;entryX=0.5;entryY=0;entryDx=0;entryDy=0;" edge="1" parent="1c1d494c118603dd-4" source="bGonlxIwtN5kuK9Iq0CV-65" target="jqkNV03kGIeta2NaU_1v-104">
          <mxGeometry relative="1" as="geometry" />
        </mxCell>
        <mxCell id="bGonlxIwtN5kuK9Iq0CV-65" value="No" style="text;html=1;align=center;verticalAlign=middle;resizable=0;points=[];autosize=1;strokeColor=none;fillColor=none;" vertex="1" parent="1c1d494c118603dd-4">
          <mxGeometry x="275" y="382.5" width="40" height="30" as="geometry" />
        </mxCell>
        <mxCell id="bGonlxIwtN5kuK9Iq0CV-68" style="edgeStyle=orthogonalEdgeStyle;rounded=0;orthogonalLoop=1;jettySize=auto;html=1;entryX=1;entryY=0.5;entryDx=0;entryDy=0;" edge="1" parent="1c1d494c118603dd-4" source="bGonlxIwtN5kuK9Iq0CV-67" target="jqkNV03kGIeta2NaU_1v-97">
          <mxGeometry relative="1" as="geometry">
            <Array as="points">
              <mxPoint x="490" y="650" />
            </Array>
          </mxGeometry>
        </mxCell>
        <mxCell id="bGonlxIwtN5kuK9Iq0CV-67" value="Si" style="text;html=1;align=center;verticalAlign=middle;resizable=0;points=[];autosize=1;strokeColor=none;fillColor=none;" vertex="1" parent="1c1d494c118603dd-4">
          <mxGeometry x="475" y="382.5" width="30" height="30" as="geometry" />
        </mxCell>
        <mxCell id="LslDM5gkmRN-KcGAirMP-16" value="" style="ellipse;whiteSpace=wrap;html=1;strokeColor=#B20000;fillColor=#e51400;fontColor=#ffffff;" vertex="1" parent="1c1d494c118603dd-4">
          <mxGeometry x="275" y="795" width="60" height="65" as="geometry" />
        </mxCell>
      </root>
    </mxGraphModel>
  </diagram>
</mxfile>
